PathFileType	4	(X/Y/Z)	..\data\2014022\dynamic\2014022_C5_02.trc
DataRate	CameraRate	NumFrames	NumMarkers	Units	OrigDataRate	OrigDataStartFrame	OrigNumFrames
100.000000	100.000000	4	52	mm	100.000000	54	145
Frame#	Time	L_IAS			L_IPS			R_IPS			R_IAS			L_FTC			L_FLE			L_FME			L_FAX			L_TTC			L_FAL			L_TAM			L_FCC			L_FM1			L_FM2			L_FM5			R_FTC			R_FLE			R_FME			R_FAX			R_TTC			R_FAL			R_TAM			R_FCC			R_FM1			R_FM2			R_FM5			CV7			TV10			SXS			SJN			L_SIA			L_SRS			L_SAA			L_SAE			L_HLE			L_HME			L_UOA			L_RSP			L_UHE			L_HM2			L_HM5			R_SIA			R_SRS			R_SAA			R_SAE			R_HLE			R_HME			R_UOA			R_RSP			R_UHE			R_HM2			R_HM5			
		X1	Y1	Z1	X2	Y2	Z2	X3	Y3	Z3	X4	Y4	Z4	X5	Y5	Z5	X6	Y6	Z6	X7	Y7	Z7	X8	Y8	Z8	X9	Y9	Z9	X10	Y10	Z10	X11	Y11	Z11	X12	Y12	Z12	X13	Y13	Z13	X14	Y14	Z14	X15	Y15	Z15	X16	Y16	Z16	X17	Y17	Z17	X18	Y18	Z18	X19	Y19	Z19	X20	Y20	Z20	X21	Y21	Z21	X22	Y22	Z22	X23	Y23	Z23	X24	Y24	Z24	X25	Y25	Z25	X26	Y26	Z26	X27	Y27	Z27	X28	Y28	Z28	X29	Y29	Z29	X30	Y30	Z30	X31	Y31	Z31	X32	Y32	Z32	X33	Y33	Z33	X34	Y34	Z34	X35	Y35	Z35	X36	Y36	Z36	X37	Y37	Z37	X38	Y38	Z38	X39	Y39	Z39	X40	Y40	Z40	X41	Y41	Z41	X42	Y42	Z42	X43	Y43	Z43	X44	Y44	Z44	X45	Y45	Z45	X46	Y46	Z46	X47	Y47	Z47	X48	Y48	Z48	X49	Y49	Z49	X50	Y50	Z50	X51	Y51	Z51	X52	Y52	Z52	

55	0.54	566.6611328125001	919.379821777344	-387.6964111328126	375.8645935058594	941.6470947265627	-309.6421813964844	383.1293945312501	942.194274902344	-199.0197143554688	573.1040039062501	928.0472412109377	-141.4839935302735	472.3396301269532	860.946472167969	-446.7669982910157	406.8496093750001	445.9365539550782	-398.5354309082032	383.7840576171876	450.2963867187501	-262.8688354492188	354.2714843750001	419.5867919921876	-401.4871826171876	405.4262084960939	365.8060607910157	-345.3283081054688	126.3731994628907	157.439682006836	-359.2843627929688	146.0361022949219	155.6707000732422	-275.0168151855469	70.29228973388673	148.4224853515625	-311.3117065429688	187.4781036376953	25.65498733520509	-262.1951904296876	205.1625976562501	36.24331665039063	-321.8196716308594	165.093017578125	37.87711715698243	-370.9787902832032	496.6262207031251	854.2803344726565	-77.60274505615236	648.2367553710939	459.5272521972657	-139.2099304199219	649.7003173828126	465.3120422363282	-275.0369873046876	641.9517211914064	406.1683654785157	-138.8725738525391	707.2633666992189	411.4607849121095	-193.3457336425782	701.4462280273439	67.65447998046876	-186.6537170410157	712.3149414062501	78.75720214843751	-274.3188171386719	670.3649291992189	13.75358676910401	-232.2839355468751	843.1239013671877	45.43769836425782	-282.4475708007813	850.2821044921877	59.35730361938478	-226.5269012451172	819.925964355469	35.67694091796876	-175.9799957275391	437.6008300781251	1415.4951171875	-287.0305480957032	360.5981750488282	1199.804077148438	-285.8059997558594	599.4967651367189	1133.746948242188	-266.3712158203126	555.1488647460939	1348.82080078125	-280.6320190429688	358.3413696289063	1230.446899414063	-372.3901367187501	396.6665649414064	1368.33251953125	-351.9139404296876	433.8639526367189	1376.361572265625	-419.6112060546876	490.3745727539064	1363.285522460938	-463.7281494140626	498.4834289550782	1043.839965820313	-517.7282104492189	486.079071044922	1032.918212890625	-428.3062133789064	497.4797363281251	1002.873046875	-481.9088439941407	737.1094360351564	1000.474182128906	-438.7025451660157	714.8625488281251	950.5344848632815	-490.8112182617189	819.9856567382815	995.3663330078127	-440.7691650390626	785.3043212890627	904.1690673828127	-476.3684387207032	346.9861755371094	1231.688598632813	-201.6201782226563	397.0694580078126	1369.15771484375	-214.721664428711	425.0570678710939	1373.259643554688	-134.2836151123047	469.1079101562501	1375.502075195313	-99.63008880615237	399.7888793945314	1068.165161132813	-48.63381195068361	421.2579956054689	1049.978515625	-127.8873291015625	391.6635131835939	1050.669799804688	-82.8970413208008	440.1894531250001	832.8150634765627	4.816404819488526	368.2039184570313	849.9353637695315	0.06609510630369188	434.6445922851564	749.1881103515626	39.60571289062501	342.9982604980469	768.4372558593752	-4.637740135192872	
56	0.55	584.8690795898439	920.733337402344	-385.1103515625001	393.6808471679689	943.3760986328127	-310.8065490722657	399.9102172851564	944.917907714844	-199.3799133300782	589.8762817382814	930.723815917969	-140.2831726074219	493.1016845703126	861.2185668945315	-446.7964172363282	435.9957275390626	444.2301025390626	-399.5035095214845	415.2757263183595	447.0208740234376	-263.9868164062501	383.2604064941407	419.3919677734376	-403.1914672851564	432.8422851562501	364.1324462890626	-347.7669982910157	143.9139709472657	169.3692169189453	-361.9871215820313	163.5927276611328	165.4673004150391	-278.0041503906251	87.97141265869142	164.5965118408203	-313.8891906738282	191.7448883056641	31.48433494567872	-264.1085510253907	211.2844543457032	39.86182022094727	-323.3744506835938	173.5771789550782	45.30250549316407	-372.7761535644532	513.8449096679689	858.0740356445315	-76.6842727661133	660.6231079101564	460.2628173828126	-138.5255126953125	663.1477661132814	467.1240234375001	-274.0276184082032	653.7210693359376	407.0513000488282	-138.2194213867188	718.6044311523439	411.0160522460939	-193.0225830078126	703.2092895507814	67.01049041748048	-186.8383483886719	714.0101318359376	77.79803466796876	-274.7859497070313	669.6646118164064	14.23657417297364	-232.0529174804688	844.256042480469	39.5699577331543	-282.9315795898438	852.1632080078127	53.65028762817384	-227.0547943115235	820.4045410156252	31.32771110534669	-175.5233917236328	454.5563964843751	1417.3994140625	-285.7032775878907	377.5067749023438	1201.69287109375	-284.4699401855469	616.2171020507814	1135.86962890625	-265.8507385253907	571.9370117187501	1350.921142578125	-279.7767333984376	374.9594421386719	1232.447021484375	-371.0399169921876	413.4393005371095	1370.330444335938	-350.4635925292969	450.3049316406251	1378.33837890625	-418.3278198242189	506.6661987304689	1365.205078125	-462.736297607422	510.168426513672	1045.668334960938	-516.4902343750001	499.2591857910157	1035.4423828125	-426.8778076171876	509.0636291503907	1004.694702148438	-480.6497192382814	749.0443725585939	997.460876464844	-440.1913146972657	725.1301269531251	947.9109497070315	-491.8567199707032	831.6995239257815	990.9239501953127	-443.5066223144532	794.9750976562502	900.4600830078127	-478.5767517089845	364.6001892089844	1233.583129882813	-199.9655914306641	414.2804260253907	1371.02734375	-213.1724243164063	442.5164794921876	1375.18701171875	-132.8192443847657	486.8672485351564	1377.334106445313	-98.46193695068362	420.3327636718751	1069.3212890625	-47.50722885131837	441.2766723632814	1051.693359375	-127.0565872192383	411.9863891601564	1051.77392578125	-81.78683471679689	462.9398193359376	834.1396484375002	4.714533805847169	390.8140869140626	850.5964355468752	0.6527798771858216	458.4596557617189	750.2412719726564	39.12058258056641	366.1787719726563	769.0167236328127	-3.873924255371095	
57	0.5600000000000001	602.6640625000001	922.3544921875002	-382.7297363281251	411.2442626953126	945.0186157226565	-311.7823791503907	416.386932373047	947.639343261719	-199.7253875732422	606.3649902343751	933.6716918945315	-139.0729675292969	513.7282714843751	861.6629028320315	-446.7740478515626	466.1779785156251	442.6898193359376	-400.5379333496095	448.2573852539064	443.7464294433595	-265.0499267578126	413.4867553710939	419.2218627929689	-404.9971008300782	461.5603332519532	362.8379516601563	-350.2125854492188	163.7191925048828	181.4465484619141	-364.2737121582032	183.5241088867188	175.3209075927735	-280.6611328125001	108.0931396484375	180.4860382080078	-316.0061645507813	198.9636993408204	38.08751296997071	-266.6017761230469	220.1475372314454	44.39015197753907	-325.5024414062501	184.7580718994141	53.90694808959962	-374.9472045898438	530.8728637695314	862.0711059570315	-75.74521636962892	672.4085693359376	460.9846191406251	-137.7221221923828	675.7770385742189	468.6985778808595	-272.9325256347657	664.9189453125001	407.9663696289064	-137.4227294921875	729.3120117187501	410.5967712402345	-192.5001068115235	704.8768310546876	66.63187408447267	-186.8724212646485	715.5578613281251	77.18041992187501	-275.0828857421876	669.2144165039064	14.83477401733399	-231.7414703369141	845.1597290039065	34.69778060913087	-283.3572692871094	853.8469238281252	48.91260910034181	-227.4942626953126	820.881774902344	27.80191040039063	-174.9073028564453	471.4114379882814	1419.408935546875	-284.4649047851563	394.2276611328126	1203.75927734375	-283.1582946777344	632.5711059570314	1137.839477539063	-265.5609130859376	588.6346435546876	1353.031127929688	-279.0372924804688	391.3629455566407	1234.66064453125	-369.7303771972657	430.1019897460939	1372.490112304688	-349.0888061523438	466.6290588378907	1380.462036132813	-417.1247863769532	522.8588867187501	1367.205444335938	-461.8137817382814	521.5471801757814	1047.602783203125	-515.1898803710939	512.2443237304689	1038.144653320313	-425.3934326171876	520.2802734375001	1006.651184082031	-479.2972717285157	760.5585937500001	993.4898681640627	-442.0061340332032	734.5839233398439	944.3996582031252	-493.0382385253907	842.899108886719	984.8999633789065	-446.6463012695314	803.430358886719	895.4609375000002	-480.9470520019532	382.0273437500001	1235.651123046875	-198.3261718750001	431.4718322753907	1373.0068359375	-211.647201538086	460.0108337402345	1377.23095703125	-131.3798065185547	504.6844177246095	1379.249633789063	-97.37115478515628	441.1240234375001	1070.500122070313	-46.31686401367188	461.3458557128907	1053.439086914063	-126.177963256836	432.4946289062501	1052.865478515625	-80.58486175537111	486.4398193359376	835.589782714844	4.542282581329347	414.1688232421876	851.2210083007815	1.346586704254151	483.310272216797	751.4318237304689	38.54582595825196	390.2779846191407	769.5122680664065	-2.962394714355469	
58	0.5700000000000001	620.0066528320314	924.2036132812502	-380.6488037109376	428.5242309570314	946.550720214844	-312.4926147460938	432.5791015625001	950.2860107421877	-200.0154571533204	622.5939331054689	936.8111572265627	-137.8742370605469	534.0647583007814	862.311218261719	-446.6715393066407	497.1294555664064	441.4677734375001	-401.5906982421876	482.3000793457032	440.7254638671876	-266.0062866210938	444.6758728027345	419.1814575195314	-406.8203735351564	491.3746032714845	362.0209350585938	-352.5269775390626	185.7387390136719	193.3686065673829	-366.1036376953126	205.7723541259766	184.9767608642578	-282.9345092773438	130.5281982421875	195.6055450439454	-317.6195373535157	209.645736694336	45.19810867309571	-269.6803588867188	232.1936492919922	49.74116134643556	-328.2202148437501	198.961898803711	63.43860626220705	-377.4914550781251	547.6121215820314	866.1126098632815	-74.81552886962892	683.5034179687501	461.6397705078126	-136.8597412109375	687.5140380859376	469.9793090820314	-271.8150939941407	675.4143676757814	408.8408508300782	-136.5517578125	739.3025512695314	410.1586303710939	-191.8248443603516	706.4698486328126	66.47437286376955	-186.8057861328125	716.9835205078126	76.85900115966798	-275.2495422363282	669.0698242187501	15.48627376556397	-231.3963623046876	845.8964843750002	30.85784530639649	-283.7518920898438	855.3718261718752	45.18522262573243	-227.8645172119141	821.405944824219	25.12509918212891	-174.2033843994141	488.1349182128907	1421.480712890625	-283.3303527832032	410.7576904296876	1205.944091796875	-281.8730773925782	648.5657348632814	1139.623291015625	-265.5059814453126	605.2198486328126	1355.111694335938	-278.4193725585938	407.5427551269532	1237.012939453125	-368.4561157226563	446.6245727539064	1374.752197265625	-347.8001403808594	482.8081665039064	1382.672119140625	-416.0119934082032	538.9147338867189	1369.23193359375	-460.9755859375001	532.7105712890626	1049.590454101563	-513.8718261718751	525.0607910156251	1040.915161132813	-423.914520263672	531.2160034179689	1008.701293945313	-477.9032592773439	771.6259765625002	988.6184082031252	-444.1212158203126	743.2556152343751	940.0883789062502	-494.3492736816407	853.5273437500002	977.397155761719	-450.1216125488282	810.6900024414065	889.2959594726565	-483.426239013672	399.2334899902345	1237.827880859375	-196.7293395996094	448.6053466796876	1375.0458984375	-210.1732025146485	477.4927062988282	1379.337036132813	-129.9925231933594	522.4996337890626	1381.20263671875	-96.37229919433597	462.0934448242189	1071.658447265625	-45.0806999206543	481.4237365722657	1055.138916015625	-125.2561798095703	453.1367187500001	1053.895751953125	-79.30682373046876	510.6468200683595	837.1501464843752	4.307915687561036	438.2337646484376	851.7904052734377	2.147439002990723	509.157440185547	752.7661132812501	37.90516662597657	415.2802734375001	769.8989257812502	-1.91126024723053	
